# xmcd CD database file
#
# Track frame offsets:
#	150
#	14852
#	24799
#	38529
#	53906
#	66550
#	81754
#	100888
#	110486
#	124029
#	162279
#	180623
#
# Disc length: 2630 seconds
#
# Revision: 0
# Processed by: cddbd v1.5.2PL0 Copyright (c) Steve Scherf et al.
# Submitted via: CDex 1.51
#
DISCID=990a440c
DTITLE=George Shearing Quintet - Lullaby of Birdland and More
DYEAR=2006
DGENRE=Jazz
TTITLE0=Theme - Oh Look At Me Now/ You Are There
TTITLE1=Call Me Irresponsible
TTITLE2=As Bach Would Say
TTITLE3=Aren't You Glad You're You?
TTITLE4=Waltz For Sheba
TTITLE5=Aldo Nova
TTITLE6=Lullaby of Birdland
TTITLE7=Be Careful It's My Heart
TTITLE8=The Sweetest Sound
TTITLE9=Medley
TTITLE10=What Is This Thing Called Love
TTITLE11=Bags Groove
EXTD=YEAR: 2006
EXTT0=
EXTT1=
EXTT2=
EXTT3=
EXTT4=
EXTT5=
EXTT6=
EXTT7=
EXTT8=
EXTT9=
EXTT10=
EXTT11=
PLAYORDER=
